<?xml version="1.0" encoding="UTF-8" standalone="no"?>
<!DOCTYPE svg PUBLIC "-//W3C//DTD SVG 1.1//EN" "http://www.w3.org/Graphics/SVG/1.1/DTD/svg11.dtd">
<svg width="100%" height="100%" viewBox="0 0 800 800" version="1.1" xmlns="http://www.w3.org/2000/svg" xmlns:xlink="http://www.w3.org/1999/xlink" xml:space="preserve" xmlns:serif="http://www.serif.com/" style="fill-rule:evenodd;clip-rule:evenodd;stroke-linejoin:round;stroke-miterlimit:2;">
    <path d="M628.203,289.606C620.687,287.028 613.108,284.64 605.472,282.444C606.738,277.298 607.909,272.13 608.984,266.941C626.191,183.416 614.941,116.128 576.522,93.978C539.688,72.734 479.444,94.884 418.6,147.831C412.605,153.06 406.742,158.44 401.019,163.966C397.186,160.292 393.285,156.689 389.319,153.159C325.553,96.541 261.637,72.684 223.259,94.9C186.459,116.203 175.559,179.463 191.05,258.619C192.591,266.458 194.331,274.256 196.269,282.006C187.225,284.575 178.491,287.313 170.134,290.225C95.378,316.288 47.634,357.138 47.634,399.506C47.634,443.269 98.884,487.162 176.753,513.775C183.067,515.923 189.434,517.913 195.847,519.744C193.763,528.094 191.914,536.5 190.3,544.953C175.531,622.734 187.066,684.494 223.769,705.666C261.678,727.525 325.303,705.056 387.259,650.9C392.156,646.619 397.072,642.078 401.994,637.319C408.193,643.3 414.558,649.108 421.081,654.734C481.094,706.375 540.363,727.228 577.034,706C614.909,684.075 627.216,617.728 611.234,537.006C610.016,530.841 608.594,524.544 607,518.131C611.469,516.813 615.853,515.45 620.131,514.031C701.081,487.213 753.747,443.853 753.747,399.506C753.747,356.984 704.466,315.859 628.203,289.606ZM581.644,542.866C588.709,578.559 589.719,610.831 585.038,636.059C580.831,658.728 572.375,673.841 561.919,679.894C539.666,692.775 492.075,676.031 440.756,631.869C434.872,626.806 428.944,621.4 423,615.681C442.897,593.919 462.781,568.619 482.188,540.525C516.325,537.497 548.575,532.544 577.822,525.784C579.259,531.597 580.541,537.294 581.644,542.866ZM288.363,677.669C266.622,685.347 249.306,685.566 238.841,679.531C216.566,666.688 207.309,617.094 219.938,550.578C221.439,542.717 223.159,534.9 225.094,527.134C254.016,533.531 286.031,538.134 320.25,540.909C339.784,568.4 360.244,593.669 380.863,615.797C376.48,620.036 371.995,624.166 367.409,628.184C340.013,652.134 312.559,669.122 288.366,677.669L288.363,677.669ZM401.863,594.091C387.566,578.663 373.306,561.6 359.378,543.247C372.897,543.778 386.681,544.047 400.691,544.047C415.084,544.047 429.313,543.725 443.316,543.1C429.566,561.788 415.681,578.875 401.863,594.091ZM499.228,456.959C488.532,475.54 477.234,493.769 465.353,511.616C444.403,513.113 422.753,513.884 400.691,513.884C378.719,513.884 357.344,513.2 336.759,511.866C324.57,494.06 313.059,475.8 302.25,457.125C291.492,438.549 281.443,419.57 272.125,400.231C281.419,380.886 291.438,361.898 302.159,343.306L302.159,343.313C312.878,324.717 324.298,306.535 336.397,288.806C357.397,287.219 378.928,286.388 400.694,286.388C422.556,286.388 444.116,287.225 465.109,288.825C477.085,306.526 488.433,324.645 499.131,343.147C509.89,361.697 520.042,380.593 529.572,399.803C520.14,419.209 510.02,438.274 499.231,456.959L499.228,456.959ZM298.312,508.5C275.187,505.919 253.378,502.422 233.237,498.037C239.472,477.906 247.153,456.981 256.125,435.7C262.511,448.034 269.185,460.217 276.144,472.238C283.244,484.499 290.636,496.59 298.312,508.5ZM545.838,434.616C555.275,456.128 563.231,476.941 569.55,496.731C549.075,501.403 526.972,505.166 503.681,507.959C511.145,496.127 518.372,484.148 525.359,472.028C532.462,459.711 539.29,447.237 545.838,434.616ZM186.509,485.231C152.078,473.463 123.644,458.169 104.153,441.481C86.641,426.481 77.797,411.591 77.797,399.506C77.797,373.797 116.131,341 180.066,318.709C188.09,315.924 196.195,313.374 204.369,311.063C213.206,339.803 224.797,369.853 238.784,400.241C224.616,431.081 212.859,461.609 203.941,490.688C198.086,489.012 192.274,487.193 186.509,485.231ZM610.644,485.4C606.784,486.678 602.822,487.913 598.784,489.109C589.847,460.819 577.784,430.734 563.028,399.656C577.113,369.313 588.706,339.616 597.394,311.506C604.616,313.6 611.628,315.803 618.384,318.131C683.728,340.622 723.584,373.881 723.584,399.506C723.584,426.803 680.538,462.241 610.647,485.4L610.644,485.4ZM525.237,328.034C518.335,316.111 511.176,304.337 503.766,292.722C526.297,295.566 547.881,299.347 568.15,303.975C562.066,323.478 554.481,343.872 545.55,364.778C539.024,352.396 532.252,340.146 525.237,328.034ZM276.022,328.241C269.095,340.256 262.449,352.431 256.091,364.756C247.306,343.922 239.791,323.438 233.653,303.656C253.8,299.147 275.284,295.463 297.669,292.666C290.176,304.353 282.958,316.214 276.022,328.241ZM561.456,120.109C585.1,133.747 594.297,188.738 579.441,260.853C578.467,265.551 577.408,270.231 576.266,274.891C546.972,268.131 515.159,263.1 481.853,259.975C462.45,232.347 442.347,207.225 422.166,185.481C427.454,180.383 432.868,175.417 438.403,170.588C490.534,125.219 539.256,107.306 561.456,120.109ZM220.653,252.825C207.381,185.003 216.194,133.844 238.372,121.006C261.997,107.331 314.231,126.831 369.288,175.716C372.806,178.841 376.341,182.112 379.881,185.497C359.369,207.525 339.097,232.603 319.731,259.934C286.522,263.013 254.731,267.956 225.506,274.578C223.706,267.368 222.088,260.114 220.653,252.822L220.653,252.825ZM401.028,207.053C414.941,222.125 428.875,238.956 442.581,257.216C414.778,255.902 386.929,255.896 359.125,257.197C372.844,239.106 386.897,222.3 401.028,207.053Z" style="fill:rgb(83,193,222);fill-rule:nonzero;"/>
    <path d="M400.691,336.453C435.516,336.453 463.744,364.684 463.744,399.506C463.744,434.331 435.516,462.563 400.691,462.563C365.869,462.563 337.638,434.331 337.638,399.506C337.638,364.684 365.869,336.453 400.691,336.453" style="fill:rgb(83,193,222);fill-rule:nonzero;"/>
</svg>
